<?xml version="1.0" standalone="no"?>
<!DOCTYPE svg PUBLIC "-//W3C//DTD SVG 20010904//EN"
 "http://www.w3.org/TR/2001/REC-SVG-20010904/DTD/svg10.dtd">
<svg version="1.0" xmlns="http://www.w3.org/2000/svg"
 width="256.000000pt" height="256.000000pt" viewBox="0 0 256.000000 256.000000"
 preserveAspectRatio="xMidYMid meet">
<metadata>
Created by potrace 1.11, written by Peter Selinger 2001-2013
</metadata>
<g transform="translate(0.000000,256.000000) scale(0.100000,-0.100000)"
fill="#000000" stroke="none">
<path d="M1602 2530 c-96 -45 -149 -86 -197 -151 -24 -32 -45 -65 -48 -71 -3
-10 -15 -7 -43 10 -21 12 -74 41 -116 62 l-78 40 -121 0 c-111 0 -127 -2 -174
-26 -52 -25 -52 -26 -59 -80 -3 -31 -4 -58 -2 -62 5 -9 19 -126 20 -171 1 -33
1 -33 -93 -67 -56 -20 -113 -49 -140 -71 -25 -20 -47 -38 -49 -38 -1 -1 -14
-42 -27 -91 -21 -75 -23 -95 -14 -129 6 -22 13 -51 16 -65 13 -76 24 -98 63
-124 22 -14 61 -31 87 -38 27 -7 49 -13 51 -14 1 -1 -7 -44 -18 -95 -12 -52
-23 -134 -25 -183 -4 -87 -3 -91 31 -153 l36 -63 -109 46 c-141 59 -268 84
-392 78 -88 -5 -97 -7 -148 -42 l-55 -37 6 -90 c3 -49 7 -101 9 -115 5 -28 14
-103 22 -170 15 -137 42 -186 177 -323 96 -98 120 -118 158 -127 25 -7 139
-42 255 -80 116 -37 235 -73 265 -80 36 -7 140 -10 300 -8 l245 3 115 57 c126
62 254 106 400 138 52 12 149 39 216 61 l120 41 115 112 c113 111 114 114 138
192 24 79 24 79 7 164 -17 85 -27 102 -116 210 -8 10 -57 39 -109 65 -99 49
-102 50 -225 30 -11 -2 -39 -6 -60 -10 -45 -6 -98 -24 -169 -54 -27 -12 -52
-21 -55 -21 -4 0 19 24 51 53 46 42 62 65 80 117 39 106 24 211 -37 262 l-21
17 30 1 c72 3 112 13 184 46 57 27 82 45 100 72 30 47 37 131 14 175 -8 17
-17 62 -19 101 -6 103 -27 158 -77 199 -61 49 -73 53 -164 51 -46 -1 -83 2
-83 6 0 4 16 43 37 85 29 63 36 87 34 130 -4 92 -10 108 -59 156 -55 54 -70
62 -137 78 -27 7 -57 14 -65 16 -8 3 -43 -8 -78 -25z m-160 -1548 c32 -53 52
-64 120 -64 47 0 82 8 138 31 41 17 79 31 84 31 5 0 -47 -40 -115 -89 -104
-75 -130 -99 -164 -153 -22 -35 -44 -68 -50 -74 -6 -6 -35 -59 -65 -117 -30
-59 -57 -107 -60 -107 -3 0 -5 85 -4 188 1 164 4 196 23 253 22 67 55 129 69
129 4 0 15 -12 24 -28z m-408 -201 c2 -95 0 -168 -4 -164 -4 4 -19 29 -33 55
-70 127 -127 188 -227 243 -65 35 -53 39 32 10 31 -10 50 -10 105 2 38 8 76
16 87 18 10 3 21 7 24 10 12 11 14 -10 16 -174z"/>
</g>
</svg>
